<?xml version="1.0" encoding="utf-8"?>
<!-- Generator: Adobe Illustrator 21.0.2, SVG Export Plug-In . SVG Version: 6.00 Build 0)  -->
<svg version="1.1" id="Layer_1" xmlns="http://www.w3.org/2000/svg" xmlns:xlink="http://www.w3.org/1999/xlink" x="0px" y="0px"
	 viewBox="0 0 300 40" style="enable-background:new 0 0 300 40;" xml:space="preserve">
<g>
	<path d="M3,11.2C2.3,9.4,1.6,9,0,9V8.5h6.8V9C5.6,9,5.2,9.2,5.2,9.7c0,0.7,0.3,1.1,6.8,18.3l6.4-16.1c0.3-0.8,0.6-1.6,0.6-2.1
		C19,9,18.1,9,17.4,9V8.5c1.2,0,5.7,0,5.7,0L23.1,9c-1.7,0.1-2.2,0.6-2.9,2.2L11.9,31c-0.2,0.4-0.3,0.5-0.4,0.5
		c-0.2,0-0.3-0.2-0.4-0.4L3,11.2z M33.2,31.3h-6.8v-0.5h0.1c1.8,0,1.9-1.2,1.9-3.6V14.7c0-2.4-0.3-2.7-2-2.8v-0.4h6.2v0.5
		c-1.9,0-2,0.5-2,3.6v11.7c0,2.9,0.2,3.6,2.6,3.6V31.3z M54.2,27.6c-1,2.3-3.3,3.9-6.9,3.9c-6.2,0-10-4.3-10-10.2
		c0-5.5,3.9-10.3,10.4-10.3c2,0,3.8,0.4,5.8,1.2c0.3,0.1,0.4,0.2,0.4,0.5l-0.2,4h-0.4c0-1.1-0.3-2.5-1.2-3.2c-1.2-1-2.6-1.5-4.9-1.5
		c-5.3,0-7.6,4-7.6,8.8c0,4.8,2.6,9.7,8,9.7c3,0,5-1.1,6.1-3.1c0.2-0.4,0.3-0.5,0.5-0.4C54.3,27.1,54.4,27.2,54.2,27.6z M74.8,14.7
		h-0.5c-0.2-1.5-0.3-2.1-2.7-2.1h-3.8v14.7c0,3.1,0.3,3.4,2.5,3.4v0.5h-6.8v-0.5c1.7,0,1.9-0.8,1.9-2.9V12.7h-3.3
		c-2.6,0-3.2,0.1-3.3,2.1h-0.5l-0.1-3.3c0,0,2.7,0.2,3.8,0.2h9c1.6,0,2.9,0,3.6-0.1l0,0L74.8,14.7z M88.3,31.6
		c-7.1,0-10.1-5.6-10.1-10.3c0-4.2,3.1-10.2,10.3-10.2c5.9,0,10.2,3.7,10.2,9.8C98.7,26.7,94.6,31.6,88.3,31.6z M88.2,12
		c-4.3,0-7.6,2.9-7.6,8.6c0,6.1,3.7,10,8.4,10c2.3,0,7.2-1.3,7.2-8.9C96.2,15.4,92.3,12,88.2,12z M120.7,31.3h-2.3
		c-2.8,0-3.7-1.9-5.2-4.2c-1.3-2-2.5-4.8-4.3-4.9l-1.2-0.1c-0.1,0-0.2,0-0.2,0.3v5.1c0,3.1,0.6,3.3,2.6,3.3v0.5h-6.7v-0.5
		c1.6-0.1,1.9-0.3,1.9-3.3V13.8c0-1.4-0.8-1.8-2.3-1.8v-0.5h6.9c3.7,0,6.2,1.7,6.2,4.9c0,2.6-2.1,4.8-4.4,5.5c2,0.7,3.6,5.2,5.2,6.9
		c1.7,1.8,2.3,2,3.7,2V31.3z M110,21.5c2.4,0,3.9-1.8,3.9-4.6c0-2.9-1.8-4.6-4.5-4.6c-1.5,0-1.9,0-1.9,0.5v8.1c0,0.3,0,0.4,0.5,0.5
		C108.1,21.4,109.4,21.5,110,21.5z M131.6,31.3h-6.8v-0.5h0.1c1.8,0,1.9-1.2,1.9-3.6V14.7c0-2.4-0.3-2.7-2.1-2.8v-0.4h6.2v0.5
		c-1.9,0-2,0.5-2,3.6v11.7c0,2.9,0.2,3.6,2.6,3.6V31.3z M148.6,30.8c1,0,1.4-0.3,1.4-0.6c0-0.3,0-0.4-0.3-1.1l-2.1-5.5
		c-0.1-0.1-0.1-0.2-0.3-0.2h-5.6c-0.1,0-0.2,0.1-0.3,0.2l-1.4,4.2c-0.2,0.5-0.5,1.5-0.5,2.1s0.6,0.8,1.6,0.8v0.5h-5.7l0.1-0.5
		c1.7-0.1,2.2-0.8,2.8-2.4l6-16.4c0.3-0.9,0.4-0.9,0.6-0.9c0.1,0,0.2,0.1,0.6,0.9l6.3,16.1c0.6,1.6,1.3,2.6,3,2.6l0.1,0.5h-6.3
		L148.6,30.8L148.6,30.8z M147.1,22.4C147.1,22.4,147.1,22.4,147.1,22.4l-2.5-7.2c-0.1-0.2-0.1-0.3-0.2-0.3s-0.1,0.1-0.2,0.3
		l-2.3,7.1c0,0,0,0.1,0,0.1c0,0.1,0.1,0.1,0.1,0.1L147.1,22.4C147.1,22.5,147.1,22.5,147.1,22.4z M157.9,11.6c0,1.8-1.3,3-3.2,3.3
		v-0.4c1.5-0.3,2.1-1.2,2.1-1.8c0-0.6-0.3-1-1.2-1.5c-0.6-0.3-0.9-0.5-0.9-1.1c0-0.6,0.5-1,1.1-1C156.9,9.1,157.9,10,157.9,11.6z
		 M167.1,31.5c-1.6,0-3.1-0.1-4.7-1.1v-3.8h0.5c0.1,2.9,2.1,3.9,4.5,3.9c2.7,0,4.1-1.8,4.1-3.4c0-2.1-1.3-3.4-4.1-5.2
		c-3.8-2.4-4.8-4.1-4.8-6.1c0-2.8,2.1-4.9,5.5-4.9c1.9,0,3.1,0.3,4.3,0.8V15H172c-0.1-0.6-0.2-1.1-0.5-1.7c-0.2-0.3-0.9-1.4-3.6-1.4
		c-2.1,0-3.5,1.3-3.5,3.2c0,1.8,1.3,2.8,4.4,4.9c3,2,4.5,4,4.6,6.1C173.3,29.3,170.9,31.5,167.1,31.5z M189.8,30.3v-4.1h0.6
		c0.3,3.4,2.5,4.5,5.3,4.5c3.1,0,4.9-2,4.9-4.1c0-2.4-1.6-3.9-4.8-5.9c-4.3-2.7-5.4-4.9-5.4-6.8c0-3.2,2.4-5.5,6.5-5.5
		c2.2,0,4.7,0.9,4.7,0.9v3.4H201c-0.1-0.6-0.2-1.2-0.6-1.8c-0.2-0.3-1.2-1.7-4.2-1.7c-2.4,0-4.2,1.6-4.2,3.8c0,2.1,1.6,3.4,5.1,5.7
		c3.4,2.3,5.1,4.5,5.1,6.8c0,5.8-5.8,6.1-7.2,6.1C191.6,31.6,189.8,30.3,189.8,30.3z M220.6,27.8l-0.1,3.5c0,0-11.9,0-13.2,0v-0.5
		c1.4,0,1.9-0.4,1.9-2.9V13.7c0-1.3-0.8-1.7-2.3-1.7v-0.5c1.1,0.1,2.6,0.1,4,0.1c1.1,0,3.9,0,5.6,0c0.6,0,3.2-0.1,3.2-0.1l-0.1,3.4
		h-0.5c-0.1-2.1-1.3-2.2-3.7-2.2c0,0-3,0-3.8,0c-0.3,0-0.3,0.1-0.3,0.3V20c0,0.1,0,0.3,0.2,0.3h4.7c0.9,0,1.2-0.3,1.4-1.1h0.5
		c0,0,0,4.1,0,4.2c-0.5,0-0.5,0-0.5,0c-0.1-0.9-0.1-1.8-1.6-2c-0.8-0.1-4-0.1-4.4-0.1c-0.1,0-0.2,0.1-0.2,0.2v7.5
		c0.1,1.4,0.1,1.4,3.5,1.4c1.1,0,3.5,0,4.1-0.3c0.8-0.4,1-1.1,1.1-2.2L220.6,27.8L220.6,27.8z M241.8,27.6c-1,2.3-3.3,3.9-6.9,3.9
		c-6.2,0-10.1-4.3-10.1-10.2c0-5.5,3.9-10.3,10.4-10.3c2,0,3.8,0.4,5.8,1.2c0.3,0.1,0.4,0.2,0.4,0.5l-0.2,4h-0.4
		c0-1.1-0.3-2.5-1.1-3.2c-1.2-1-2.6-1.5-4.9-1.5c-5.3,0-7.6,4-7.6,8.8c0,4.8,2.6,9.7,7.9,9.7c3,0,5-1.1,6.1-3.1
		c0.2-0.4,0.3-0.5,0.6-0.4C241.9,27.1,241.9,27.2,241.8,27.6z M263.6,31.3h-2.3c-2.8,0-3.7-1.9-5.2-4.2c-1.3-2-2.5-4.8-4.3-4.9
		l-1.2-0.1c-0.1,0-0.2,0-0.2,0.3v5.1c0,3.1,0.6,3.3,2.6,3.3v0.5h-6.7v-0.5c1.6-0.1,1.9-0.3,1.9-3.3V13.8c0-1.4-0.9-1.8-2.3-1.8v-0.5
		h6.9c3.7,0,6.2,1.7,6.2,4.9c0,2.6-2.1,4.8-4.4,5.5c2,0.7,3.6,5.2,5.2,6.9c1.7,1.8,2.3,2,3.7,2L263.6,31.3L263.6,31.3z M252.9,21.5
		c2.4,0,3.9-1.8,3.9-4.6c0-2.9-1.8-4.6-4.5-4.6c-1.5,0-1.9,0-1.9,0.5v8.1c0,0.3,0,0.4,0.5,0.5C250.9,21.4,252.3,21.5,252.9,21.5z
		 M279.9,27.8l0,3.5c0,0-11.9,0-13.2,0v-0.5c1.4,0,1.9-0.4,1.9-2.9V13.7c0-1.3-0.9-1.7-2.3-1.7v-0.5c1.1,0.1,2.6,0.1,4,0.1
		c1.1,0,3.9,0,5.6,0c0.5,0,3.2-0.1,3.2-0.1l0,3.4h-0.5c-0.1-2.1-1.3-2.2-3.7-2.2c0,0-3,0-3.8,0c-0.3,0-0.3,0.1-0.3,0.3V20
		c0,0.1,0,0.3,0.2,0.3h4.7c0.9,0,1.2-0.3,1.4-1.1h0.5c0,0,0,4.1,0,4.2c-0.5,0-0.5,0-0.5,0c0-0.9-0.1-1.8-1.6-2
		c-0.8-0.1-4-0.1-4.5-0.1c-0.1,0-0.2,0.1-0.2,0.2v7.5c0,1.4,0.1,1.4,3.5,1.4c1.1,0,3.5,0,4.1-0.3c0.8-0.4,1-1.1,1.1-2.2L279.9,27.8
		L279.9,27.8z M299.9,14.7h-0.5c-0.2-1.5-0.3-2.1-2.7-2.1H293v14.7c0,3.1,0.3,3.4,2.5,3.4v0.5h-6.8v-0.5c1.7,0,1.9-0.8,1.9-2.9V12.7
		h-3.3c-2.6,0-3.2,0.1-3.3,2.1h-0.5l-0.1-3.3c0,0,2.7,0.2,3.9,0.2h9c1.6,0,2.9,0,3.6-0.1l0,0L299.9,14.7z"/>
</g>
</svg>
